<?xml version="1.0" encoding="utf-8"?>
<!-- Generator: Adobe Illustrator 16.0.0, SVG Export Plug-In . SVG Version: 6.00 Build 0)  -->
<!DOCTYPE svg PUBLIC "-//W3C//DTD SVG 1.1//EN" "http://www.w3.org/Graphics/SVG/1.1/DTD/svg11.dtd">
<svg version="1.1" id="Layer_1" xmlns="http://www.w3.org/2000/svg" xmlns:xlink="http://www.w3.org/1999/xlink" x="0px" y="0px"
	 width="843.875px" height="574.582px" viewBox="0 0 843.875 574.582" enable-background="new 0 0 843.875 574.582"
	 xml:space="preserve">
<g transform="translate(22.5000185, 22.5000185) ">
	<polygon fill="none" stroke="#000000" stroke-width="0.2835" points="-4.5,-4.5 52.193,-4.5 52.193,9.673 108.886,9.673 
		108.886,-4.5 151.406,-4.5 151.406,9.673 208.099,9.673 208.099,-4.5 264.791,-4.5 264.791,52.193 250.618,52.193 250.618,108.886 
		264.791,108.886 264.791,151.406 250.618,151.406 250.618,208.099 264.791,208.099 264.791,264.791 208.099,264.791 
		208.099,250.618 151.406,250.618 151.406,264.791 108.886,264.791 108.886,250.618 52.193,250.618 52.193,264.791 -4.5,264.791 
		-4.5,208.099 9.673,208.099 9.673,151.406 -4.5,151.406 -4.5,108.886 9.673,108.886 9.673,52.193 -4.5,52.193 	"/>
</g>
<g transform="translate(359.1144685, 22.5000185) ">
	<polygon fill="none" stroke="#000000" stroke-width="0.2835" points="-71.823,-4.5 -15.13,-4.5 -15.13,9.673 41.563,9.673 
		41.563,-4.5 84.082,-4.5 84.082,9.673 140.776,9.673 140.776,-4.5 197.469,-4.5 197.469,52.193 183.295,52.193 183.295,108.886 
		197.469,108.886 197.469,151.406 183.295,151.406 183.295,208.099 197.469,208.099 197.469,264.791 140.776,264.791 
		140.776,250.618 84.082,250.618 84.082,264.791 41.563,264.791 41.563,250.618 -15.13,250.618 -15.13,264.791 -71.823,264.791 
		-71.823,208.099 -57.65,208.099 -57.65,151.406 -71.823,151.406 -71.823,108.886 -57.65,108.886 -57.65,52.193 -71.823,52.193 	"/>
</g>
<g transform="translate(695.7289185, 22.5000185) ">
	<polygon fill="none" stroke="#000000" stroke-width="0.2835" points="-124.974,-4.5 -82.454,-4.5 -82.454,9.673 -25.761,9.673 
		-25.761,-4.5 16.759,-4.5 16.759,9.673 73.452,9.673 73.452,-4.5 115.972,-4.5 115.972,52.193 130.146,52.193 130.146,108.886 
		115.972,108.886 115.972,151.406 130.146,151.406 130.146,208.099 115.972,208.099 115.972,264.791 73.452,264.791 73.452,250.618 
		16.759,250.618 16.759,264.791 -25.761,264.791 -25.761,250.618 -82.454,250.618 -82.454,264.791 -124.974,264.791 
		-124.974,208.099 -139.145,208.099 -139.145,151.406 -124.974,151.406 -124.974,108.886 -139.145,108.886 -139.145,52.193 
		-124.974,52.193 	"/>
</g>
<g transform="translate(695.7289185, 359.1144685) ">
	<polygon fill="none" stroke="#000000" stroke-width="0.2835" points="-124.974,-71.823 -82.454,-71.823 -82.454,-57.65 
		-25.761,-57.65 -25.761,-71.823 16.759,-71.823 16.759,-57.65 73.452,-57.65 73.452,-71.823 115.972,-71.823 115.972,-15.131 
		130.146,-15.131 130.146,41.563 115.972,41.563 115.972,84.082 130.146,84.082 130.146,140.775 115.972,140.775 115.972,197.468 
		73.452,197.468 73.452,183.295 16.759,183.295 16.759,197.468 -25.761,197.468 -25.761,183.295 -82.454,183.295 -82.454,197.468 
		-124.974,197.468 -124.974,140.775 -139.145,140.775 -139.145,84.082 -124.974,84.082 -124.974,41.563 -139.145,41.563 
		-139.145,-15.131 -124.974,-15.131 	"/>
</g>
<g transform="translate(22.5000185, 359.1144685) ">
	<polygon fill="none" stroke="#000000" stroke-width="0.2835" points="9.673,-57.65 52.193,-57.65 52.193,-71.823 108.886,-71.823 
		108.886,-57.65 151.406,-57.65 151.406,-71.823 208.099,-71.823 208.099,-57.65 250.618,-57.65 250.618,-15.131 264.791,-15.131 
		264.791,41.563 250.618,41.563 250.618,84.082 264.791,84.082 264.791,140.775 250.618,140.775 250.618,183.295 208.099,183.295 
		208.099,197.468 151.406,197.468 151.406,183.295 108.886,183.295 108.886,197.468 52.193,197.468 52.193,183.295 9.673,183.295 
		9.673,140.775 -4.5,140.775 -4.5,84.082 9.673,84.082 9.673,41.563 -4.5,41.563 -4.5,-15.131 9.673,-15.131 	"/>
</g>
<g transform="translate(359.1144685, 359.1144685) ">
	<polygon fill="none" stroke="#000000" stroke-width="0.2835" points="-57.65,-57.65 -15.13,-57.65 -15.13,-71.823 41.563,-71.823 
		41.563,-57.65 84.082,-57.65 84.082,-71.823 140.776,-71.823 140.776,-57.65 183.295,-57.65 183.295,-15.131 197.469,-15.131 
		197.469,41.563 183.295,41.563 183.295,84.082 197.469,84.082 197.469,140.775 183.295,140.775 183.295,183.295 140.776,183.295 
		140.776,197.468 84.082,197.468 84.082,183.295 41.563,183.295 41.563,197.468 -15.13,197.468 -15.13,183.295 -57.65,183.295 
		-57.65,140.775 -71.823,140.775 -71.823,84.082 -57.65,84.082 -57.65,41.563 -71.823,41.563 -71.823,-15.131 -57.65,-15.131 	"/>
</g>
<path fill="none" stroke="#231F20" stroke-width="0.2835" stroke-miterlimit="10" d="M107.252,106.74l0.006,0.007
	c-12.059,12.055-18.256,27.711-18.713,43.512h-0.09h32.006c0.441-7.623,3.537-15.12,9.361-20.947L107.252,106.74z"/>
<path fill="none" stroke="#231F20" stroke-width="0.2835" stroke-miterlimit="10" d="M184.833,154.013
	c-0.445,7.619-3.541,15.113-9.363,20.938c-5.836,5.846-13.904,9.454-22.819,9.457v-0.003c-8.262,0.009-16.521-3.145-22.824-9.448
	l-22.568,22.564c12.537,12.536,28.963,18.802,45.391,18.805v-0.003c17.729-0.003,33.776-7.188,45.391-18.801l-0.006-0.007
	c12.055-12.052,18.25-27.706,18.713-43.502h0.092H184.833z"/>
<circle fill="none" stroke="#231F20" stroke-width="0.2835" stroke-miterlimit="10" cx="159.149" cy="103.737" r="5.669"/>
<circle fill="none" stroke="#231F20" stroke-width="0.2835" stroke-miterlimit="10" cx="145.754" cy="103.737" r="5.669"/>
<g>
	<g>
		
			<rect x="478.63" y="211.807" fill="none" stroke="#231F20" stroke-width="0.2835" stroke-miterlimit="10" width="56.693" height="34.016"/>
	</g>
</g>
<g>
	
		<rect x="327.451" y="114.378" fill="none" stroke="#231F20" stroke-width="0.2835" stroke-miterlimit="10" width="36.852" height="76.535"/>
</g>
</svg>
