<?xml version="1.0" encoding="utf-8"?>
<!-- Generator: Adobe Illustrator 16.0.0, SVG Export Plug-In . SVG Version: 6.00 Build 0)  -->
<!DOCTYPE svg PUBLIC "-//W3C//DTD SVG 1.1//EN" "http://www.w3.org/Graphics/SVG/1.1/DTD/svg11.dtd">
<svg version="1.1" id="Layer_1" xmlns="http://www.w3.org/2000/svg" xmlns:xlink="http://www.w3.org/1999/xlink" x="0px" y="0px"
	 width="765.35px" height="595.28px" viewBox="0 0 765.35 595.28" enable-background="new 0 0 765.35 595.28" xml:space="preserve">
<rect x="247.623" y="163.256" fill="none" stroke="#231F20" stroke-width="0.2835" stroke-miterlimit="10" width="269.291" height="269.291"/>
<path fill="none" stroke="#231F20" stroke-width="0.2835" stroke-miterlimit="10" d="M350.083,295.515
	c0.441-7.623,3.538-15.12,9.362-20.947c5.836-5.848,13.904-9.454,22.818-9.457v0.003c8.262-0.009,16.521,3.145,22.825,9.448
	l22.567-22.564c-12.537-12.536-28.963-18.802-45.391-18.805v0.003c-17.729,0.003-33.773,7.188-45.392,18.801l0.006,0.007
	c-12.058,12.055-18.255,27.711-18.713,43.512h-0.09H350.083z"/>
<path fill="none" stroke="#231F20" stroke-width="0.2835" stroke-miterlimit="10" d="M414.455,299.269
	c-0.445,7.619-3.541,15.113-9.363,20.938c-5.836,5.846-13.904,9.454-22.818,9.457v-0.003c-8.262,0.009-16.521-3.145-22.825-9.448
	l-22.568,22.564c12.538,12.536,28.963,18.802,45.392,18.805v-0.003c17.729-0.003,33.775-7.188,45.391-18.801l-0.006-0.007
	c12.055-12.052,18.25-27.706,18.713-43.502h0.091H414.455z"/>
<line fill="none" stroke="#231F20" stroke-width="0.2835" stroke-miterlimit="10" x1="382.273" y1="329.66" x2="382.271" y2="361.578"/>
<line fill="none" stroke="#231F20" stroke-width="0.2835" stroke-miterlimit="10" x1="405.092" y1="320.206" x2="427.662" y2="342.777"/>
<line fill="none" stroke="#231F20" stroke-width="0.2835" stroke-miterlimit="10" x1="359.445" y1="274.567" x2="336.875" y2="251.996"/>
<g>
	<circle opacity="0.25" fill="#231F20" cx="426.529" cy="315.011" r="5.783"/>
	<g opacity="0.15">
		<rect x="415.729" y="304.212" fill="#231F20" width="21.6" height="21.6"/>
	</g>
</g>
<g>
	<circle opacity="0.25" fill="#231F20" cx="337.36" cy="278.999" r="5.783"/>
	<g opacity="0.15">
		<rect x="326.561" y="268.2" fill="#231F20" width="21.6" height="21.6"/>
	</g>
</g>
<g>
	<circle opacity="0.25" fill="#231F20" cx="399.759" cy="341.233" r="5.783"/>
	<g opacity="0.15">
		<rect x="388.959" y="330.435" fill="#231F20" width="21.6" height="21.6"/>
	</g>
</g>
<g>
	<circle opacity="0.25" fill="#231F20" cx="364.393" cy="341.233" r="5.783"/>
	<g opacity="0.15">
		<rect x="353.593" y="330.435" fill="#231F20" width="21.6" height="21.6"/>
	</g>
</g>
</svg>
